<mxfile host="app.diagrams.net" modified="2023-07-26T15:09:30.903Z" agent="Mozilla/5.0 (Windows NT 10.0; Win64; x64) AppleWebKit/537.36 (KHTML, like Gecko) Chrome/115.0.0.0 Safari/537.36" etag="FxRDx2x1rdC6mLD5YLzz" version="21.6.5" type="device">
  <diagram name="Страница 1" id="Mgmkaygj8V2mmRTeE8MG">
    <mxGraphModel dx="1050" dy="566" grid="1" gridSize="10" guides="1" tooltips="1" connect="1" arrows="1" fold="1" page="1" pageScale="1" pageWidth="827" pageHeight="1169" math="0" shadow="0">
      <root>
        <mxCell id="0" />
        <mxCell id="1" parent="0" />
        <mxCell id="UpexlLb_GJpzRSQ99fqZ-4" style="edgeStyle=orthogonalEdgeStyle;rounded=0;orthogonalLoop=1;jettySize=auto;html=1;exitX=1;exitY=0.5;exitDx=0;exitDy=0;entryX=0.5;entryY=0;entryDx=0;entryDy=0;" edge="1" parent="1" source="UpexlLb_GJpzRSQ99fqZ-1" target="UpexlLb_GJpzRSQ99fqZ-3">
          <mxGeometry relative="1" as="geometry" />
        </mxCell>
        <mxCell id="UpexlLb_GJpzRSQ99fqZ-1" value="Telegram" style="rounded=0;whiteSpace=wrap;html=1;" vertex="1" parent="1">
          <mxGeometry x="40" y="40" width="120" height="60" as="geometry" />
        </mxCell>
        <mxCell id="UpexlLb_GJpzRSQ99fqZ-5" style="edgeStyle=orthogonalEdgeStyle;rounded=0;orthogonalLoop=1;jettySize=auto;html=1;exitX=0;exitY=0.5;exitDx=0;exitDy=0;entryX=0.5;entryY=0;entryDx=0;entryDy=0;" edge="1" parent="1" source="UpexlLb_GJpzRSQ99fqZ-2" target="UpexlLb_GJpzRSQ99fqZ-3">
          <mxGeometry relative="1" as="geometry" />
        </mxCell>
        <mxCell id="UpexlLb_GJpzRSQ99fqZ-2" value="REST" style="rounded=0;whiteSpace=wrap;html=1;" vertex="1" parent="1">
          <mxGeometry x="680" y="40" width="120" height="60" as="geometry" />
        </mxCell>
        <mxCell id="UpexlLb_GJpzRSQ99fqZ-9" style="edgeStyle=orthogonalEdgeStyle;rounded=0;orthogonalLoop=1;jettySize=auto;html=1;exitX=0.5;exitY=1;exitDx=0;exitDy=0;entryX=0.5;entryY=0;entryDx=0;entryDy=0;" edge="1" parent="1" source="UpexlLb_GJpzRSQ99fqZ-3" target="UpexlLb_GJpzRSQ99fqZ-8">
          <mxGeometry relative="1" as="geometry" />
        </mxCell>
        <mxCell id="UpexlLb_GJpzRSQ99fqZ-3" value="Global Exception Handler" style="rounded=0;whiteSpace=wrap;html=1;" vertex="1" parent="1">
          <mxGeometry x="354" y="120" width="120" height="60" as="geometry" />
        </mxCell>
        <mxCell id="UpexlLb_GJpzRSQ99fqZ-6" value="Register Client = Telegram" style="text;html=1;strokeColor=none;fillColor=none;align=center;verticalAlign=middle;whiteSpace=wrap;rounded=0;" vertex="1" parent="1">
          <mxGeometry x="160" y="40" width="150" height="30" as="geometry" />
        </mxCell>
        <mxCell id="UpexlLb_GJpzRSQ99fqZ-7" value="Register Client = REST" style="text;html=1;strokeColor=none;fillColor=none;align=center;verticalAlign=middle;whiteSpace=wrap;rounded=0;" vertex="1" parent="1">
          <mxGeometry x="550" y="40" width="130" height="30" as="geometry" />
        </mxCell>
        <mxCell id="UpexlLb_GJpzRSQ99fqZ-14" style="edgeStyle=orthogonalEdgeStyle;rounded=0;orthogonalLoop=1;jettySize=auto;html=1;exitX=0.5;exitY=1;exitDx=0;exitDy=0;entryX=0.5;entryY=0;entryDx=0;entryDy=0;" edge="1" parent="1" source="UpexlLb_GJpzRSQ99fqZ-8" target="UpexlLb_GJpzRSQ99fqZ-11">
          <mxGeometry relative="1" as="geometry" />
        </mxCell>
        <mxCell id="UpexlLb_GJpzRSQ99fqZ-16" style="edgeStyle=orthogonalEdgeStyle;rounded=0;orthogonalLoop=1;jettySize=auto;html=1;exitX=0.5;exitY=1;exitDx=0;exitDy=0;" edge="1" parent="1" source="UpexlLb_GJpzRSQ99fqZ-8" target="UpexlLb_GJpzRSQ99fqZ-15">
          <mxGeometry relative="1" as="geometry" />
        </mxCell>
        <mxCell id="UpexlLb_GJpzRSQ99fqZ-8" value="Error Wrapping Strategy Factory" style="rounded=0;whiteSpace=wrap;html=1;" vertex="1" parent="1">
          <mxGeometry x="354" y="240" width="120" height="60" as="geometry" />
        </mxCell>
        <mxCell id="UpexlLb_GJpzRSQ99fqZ-10" value="Determine Wrapping Strategy based on Client type" style="text;html=1;strokeColor=none;fillColor=none;align=center;verticalAlign=middle;whiteSpace=wrap;rounded=0;" vertex="1" parent="1">
          <mxGeometry x="420" y="190" width="180" height="30" as="geometry" />
        </mxCell>
        <mxCell id="UpexlLb_GJpzRSQ99fqZ-22" style="edgeStyle=orthogonalEdgeStyle;rounded=0;orthogonalLoop=1;jettySize=auto;html=1;exitX=0.5;exitY=1;exitDx=0;exitDy=0;entryX=0.5;entryY=0;entryDx=0;entryDy=0;" edge="1" parent="1" source="UpexlLb_GJpzRSQ99fqZ-11" target="UpexlLb_GJpzRSQ99fqZ-21">
          <mxGeometry relative="1" as="geometry" />
        </mxCell>
        <mxCell id="UpexlLb_GJpzRSQ99fqZ-11" value="Telegram Exception Wrapping Strategy" style="rounded=0;whiteSpace=wrap;html=1;" vertex="1" parent="1">
          <mxGeometry x="50" y="500" width="120" height="60" as="geometry" />
        </mxCell>
        <mxCell id="UpexlLb_GJpzRSQ99fqZ-23" style="edgeStyle=orthogonalEdgeStyle;rounded=0;orthogonalLoop=1;jettySize=auto;html=1;exitX=0.5;exitY=1;exitDx=0;exitDy=0;" edge="1" parent="1" source="UpexlLb_GJpzRSQ99fqZ-12" target="UpexlLb_GJpzRSQ99fqZ-21">
          <mxGeometry relative="1" as="geometry" />
        </mxCell>
        <mxCell id="UpexlLb_GJpzRSQ99fqZ-12" value="XML Gateway Error Wrapping Strategy" style="rounded=0;whiteSpace=wrap;html=1;" vertex="1" parent="1">
          <mxGeometry x="474" y="500" width="120" height="60" as="geometry" />
        </mxCell>
        <mxCell id="UpexlLb_GJpzRSQ99fqZ-24" style="edgeStyle=orthogonalEdgeStyle;rounded=0;orthogonalLoop=1;jettySize=auto;html=1;exitX=0.5;exitY=1;exitDx=0;exitDy=0;entryX=0.5;entryY=0;entryDx=0;entryDy=0;" edge="1" parent="1" source="UpexlLb_GJpzRSQ99fqZ-13" target="UpexlLb_GJpzRSQ99fqZ-21">
          <mxGeometry relative="1" as="geometry" />
        </mxCell>
        <mxCell id="UpexlLb_GJpzRSQ99fqZ-13" value="RFC7807 Error Wrapping Strategy" style="rounded=0;whiteSpace=wrap;html=1;" vertex="1" parent="1">
          <mxGeometry x="670" y="500" width="120" height="60" as="geometry" />
        </mxCell>
        <mxCell id="UpexlLb_GJpzRSQ99fqZ-17" style="edgeStyle=orthogonalEdgeStyle;rounded=0;orthogonalLoop=1;jettySize=auto;html=1;exitX=0.5;exitY=1;exitDx=0;exitDy=0;entryX=0.5;entryY=0;entryDx=0;entryDy=0;" edge="1" parent="1" source="UpexlLb_GJpzRSQ99fqZ-15" target="UpexlLb_GJpzRSQ99fqZ-12">
          <mxGeometry relative="1" as="geometry" />
        </mxCell>
        <mxCell id="UpexlLb_GJpzRSQ99fqZ-18" style="edgeStyle=orthogonalEdgeStyle;rounded=0;orthogonalLoop=1;jettySize=auto;html=1;exitX=0.5;exitY=1;exitDx=0;exitDy=0;entryX=0.5;entryY=0;entryDx=0;entryDy=0;" edge="1" parent="1" source="UpexlLb_GJpzRSQ99fqZ-15" target="UpexlLb_GJpzRSQ99fqZ-13">
          <mxGeometry relative="1" as="geometry" />
        </mxCell>
        <mxCell id="UpexlLb_GJpzRSQ99fqZ-15" value="Load REST wrapping strategy based on app.error.strategy property" style="ellipse;whiteSpace=wrap;html=1;" vertex="1" parent="1">
          <mxGeometry x="520" y="340" width="220" height="120" as="geometry" />
        </mxCell>
        <mxCell id="UpexlLb_GJpzRSQ99fqZ-33" style="edgeStyle=orthogonalEdgeStyle;rounded=0;orthogonalLoop=1;jettySize=auto;html=1;exitX=0.5;exitY=1;exitDx=0;exitDy=0;entryX=0.5;entryY=0;entryDx=0;entryDy=0;" edge="1" parent="1" source="UpexlLb_GJpzRSQ99fqZ-19" target="UpexlLb_GJpzRSQ99fqZ-25">
          <mxGeometry relative="1" as="geometry" />
        </mxCell>
        <mxCell id="UpexlLb_GJpzRSQ99fqZ-19" value="Send Telegram Error message in SendMessage Format" style="rounded=1;whiteSpace=wrap;html=1;" vertex="1" parent="1">
          <mxGeometry x="40" y="750" width="120" height="60" as="geometry" />
        </mxCell>
        <mxCell id="UpexlLb_GJpzRSQ99fqZ-30" style="edgeStyle=orthogonalEdgeStyle;rounded=0;orthogonalLoop=1;jettySize=auto;html=1;exitX=0.5;exitY=1;exitDx=0;exitDy=0;entryX=0.5;entryY=0;entryDx=0;entryDy=0;" edge="1" parent="1" source="UpexlLb_GJpzRSQ99fqZ-21" target="UpexlLb_GJpzRSQ99fqZ-19">
          <mxGeometry relative="1" as="geometry" />
        </mxCell>
        <mxCell id="UpexlLb_GJpzRSQ99fqZ-31" style="edgeStyle=orthogonalEdgeStyle;rounded=0;orthogonalLoop=1;jettySize=auto;html=1;exitX=0.5;exitY=1;exitDx=0;exitDy=0;entryX=0.5;entryY=0;entryDx=0;entryDy=0;" edge="1" parent="1" source="UpexlLb_GJpzRSQ99fqZ-21" target="UpexlLb_GJpzRSQ99fqZ-28">
          <mxGeometry relative="1" as="geometry" />
        </mxCell>
        <mxCell id="UpexlLb_GJpzRSQ99fqZ-32" style="edgeStyle=orthogonalEdgeStyle;rounded=0;orthogonalLoop=1;jettySize=auto;html=1;exitX=0.5;exitY=1;exitDx=0;exitDy=0;entryX=0.5;entryY=0;entryDx=0;entryDy=0;" edge="1" parent="1" source="UpexlLb_GJpzRSQ99fqZ-21" target="UpexlLb_GJpzRSQ99fqZ-29">
          <mxGeometry relative="1" as="geometry" />
        </mxCell>
        <mxCell id="UpexlLb_GJpzRSQ99fqZ-21" value="Error Description Response" style="rounded=0;whiteSpace=wrap;html=1;" vertex="1" parent="1">
          <mxGeometry x="354" y="610" width="120" height="60" as="geometry" />
        </mxCell>
        <mxCell id="UpexlLb_GJpzRSQ99fqZ-25" value="TelegramErrorDescription.java" style="rounded=0;whiteSpace=wrap;html=1;" vertex="1" parent="1">
          <mxGeometry x="15" y="850" width="170" height="60" as="geometry" />
        </mxCell>
        <mxCell id="UpexlLb_GJpzRSQ99fqZ-26" value="GatewayErrorDescription.java" style="rounded=0;whiteSpace=wrap;html=1;" vertex="1" parent="1">
          <mxGeometry x="449" y="850" width="170" height="60" as="geometry" />
        </mxCell>
        <mxCell id="UpexlLb_GJpzRSQ99fqZ-27" value="RFCErrorDescription.java" style="rounded=0;whiteSpace=wrap;html=1;" vertex="1" parent="1">
          <mxGeometry x="645" y="850" width="170" height="60" as="geometry" />
        </mxCell>
        <mxCell id="UpexlLb_GJpzRSQ99fqZ-34" style="edgeStyle=orthogonalEdgeStyle;rounded=0;orthogonalLoop=1;jettySize=auto;html=1;exitX=0.5;exitY=1;exitDx=0;exitDy=0;" edge="1" parent="1" source="UpexlLb_GJpzRSQ99fqZ-28" target="UpexlLb_GJpzRSQ99fqZ-26">
          <mxGeometry relative="1" as="geometry" />
        </mxCell>
        <mxCell id="UpexlLb_GJpzRSQ99fqZ-28" value="Send Error in XML Gateway format" style="rounded=1;whiteSpace=wrap;html=1;" vertex="1" parent="1">
          <mxGeometry x="474" y="750" width="120" height="60" as="geometry" />
        </mxCell>
        <mxCell id="UpexlLb_GJpzRSQ99fqZ-35" style="edgeStyle=orthogonalEdgeStyle;rounded=0;orthogonalLoop=1;jettySize=auto;html=1;exitX=0.5;exitY=1;exitDx=0;exitDy=0;entryX=0.5;entryY=0;entryDx=0;entryDy=0;" edge="1" parent="1" source="UpexlLb_GJpzRSQ99fqZ-29" target="UpexlLb_GJpzRSQ99fqZ-27">
          <mxGeometry relative="1" as="geometry" />
        </mxCell>
        <mxCell id="UpexlLb_GJpzRSQ99fqZ-29" value="Send Error in RFC7807 format" style="rounded=1;whiteSpace=wrap;html=1;" vertex="1" parent="1">
          <mxGeometry x="670" y="750" width="120" height="60" as="geometry" />
        </mxCell>
      </root>
    </mxGraphModel>
  </diagram>
</mxfile>
